# xmcd
#
# Track frame offsets:
#	183
#	16560
#	34370
#	48990
#	63793
#	78110
#	94715
#	106380
#	121408
#	137063
#	150603
#	165513
#	179300
#	198228
#	209018
#	226613
#	239175
#	252645
#	272265
#	286288
#	299958
#	314785
#	326933
#
# Disc length: 4543 seconds
#
# Revision: 1
# Processed by: cddbd v1.4PL0 Copyright (c) Steve Scherf et al.
# Submitted via: audiograbber 1.82.01
#
DISCID=5211bd17
DTITLE=Stefanie Werger - Zerbrechlich
DYEAR=1983
DGENRE=Deutsch
TTITLE0=Die Nächste Bin I
TTITLE1=Mei Herz Wa A Verbrecha
TTITLE2=Hob Mi Gern
TTITLE3=Bedeutungslos
TTITLE4=I Wär Die Frau
TTITLE5=Waunn Herbst Is
TTITLE6=Steh Grod
TTITLE7=I Bin Zua
TTITLE8=I Sog Net Na
TTITLE9=Geisterstund´
TTITLE10=I Wü Di Gspürn
TTITLE11=I Mecht´s Amoi Wiss´n
TTITLE12=Dann Bin I Frei
TTITLE13=Schlof Weiter
TTITLE14=Es Woa Sche´
TTITLE15=Wan´amoi
TTITLE16=Bleib No
TTITLE17=Janis
TTITLE18=Volle Kraft Voran
TTITLE19=I Bring Kan´hillybilly Z´samm
TTITLE20=So Oder So
TTITLE21=Woat Net, Bis Der Winta Kummt
TTITLE22=Zerbrechlich
EXTD=
EXTT0=
EXTT1=
EXTT2=
EXTT3=
EXTT4=
EXTT5=
EXTT6=
EXTT7=
EXTT8=
EXTT9=
EXTT10=
EXTT11=
EXTT12=
EXTT13=
EXTT14=
EXTT15=
EXTT16=
EXTT17=
EXTT18=
EXTT19=
EXTT20=
EXTT21=
EXTT22=
PLAYORDER=
